<?xml version="1.0" standalone="no"?><!DOCTYPE svg PUBLIC "-//W3C//DTD SVG 1.1//EN" "http://www.w3.org/Graphics/SVG/1.1/DTD/svg11.dtd"><svg t="1611566244504" class="icon" viewBox="0 0 1024 1024" version="1.1" xmlns="http://www.w3.org/2000/svg" p-id="3523" xmlns:xlink="http://www.w3.org/1999/xlink" width="32" height="32"><defs><style type="text/css"></style></defs><path d="M697.36 689.07L531.118 859.215c-5.335 5.46-11.773 8.192-19.317 8.192-7.542 0-13.982-2.733-19.315-8.192L326.244 689.07c-8.002-8.187-10.251-19.718-5.92-30.418 4.33-10.698 13.92-17.204 25.234-17.204h134.207v-452.23c0-17.838 14.398-32.296 32.236-32.296 17.833 0 32.232 14.458 32.232 32.297v452.23h133.81c11.316 0 20.909 6.505 25.237 17.203 4.33 10.7 2.079 22.231-5.92 30.418z" p-id="3524" fill="#1296db"></path></svg>